<svg width="141" height="65" viewBox="0 0 141 65" fill="none" xmlns="http://www.w3.org/2000/svg">
<g clip-path="url(#clip0_389_23335)">
<path d="M131.488 64.5916C133.897 64.592 136.208 63.6358 137.911 61.9334C139.615 60.2309 140.573 57.9216 140.574 55.5133V9.07958C140.574 7.88699 140.338 6.70612 139.882 5.60439C139.425 4.50266 138.756 3.50165 137.912 2.65851C137.068 1.81537 136.067 1.14662 134.964 0.690426C133.862 0.234236 132.681 -0.000454018 131.488 -0.000244H9.09041C6.68156 -0.000244 4.37136 0.956377 2.66804 2.65917C0.964727 4.36197 0.0078125 6.67146 0.0078125 9.07958L0.0078125 55.5133C0.00823669 57.9212 0.965338 60.2303 2.66861 61.9327C4.37188 63.6352 6.68184 64.5916 9.09041 64.5916H131.488Z" fill="#2360A5"/>
<path d="M10.3804 62.6504C5.47276 62.6504 2 59.2763 2 54.4885V10.1032C2 5.31702 5.47276 1.94287 10.3804 1.94287H130.203C135.11 1.94287 138.581 5.31702 138.581 10.1032V54.4885C138.581 59.2747 135.11 62.6504 130.203 62.6504H10.3804ZM128.875 60.8098C133.671 60.8098 136.561 58.0913 136.561 53.5194V11.0707C136.561 6.50037 133.671 3.78346 128.875 3.78346H11.7065C6.91241 3.78346 4.02351 6.50037 4.02351 11.0707V53.521C4.02351 58.0913 6.91241 60.8114 11.7065 60.8114L128.875 60.8098Z" fill="#FFF22D"/>
<path d="M119.379 45.196C113.492 45.196 107.929 42.1768 107.929 35.5916C107.929 29.0064 113.494 25.9873 119.379 25.9873C125.269 25.9873 130.832 29.0064 130.832 35.5916C130.832 42.1768 125.269 45.196 119.379 45.196ZM19.9999 39.639H33.6798L36.1704 44.7162H44.2244L31.4963 19.8354H22.7272L10.6182 44.7162H17.6837L19.9999 39.639ZM51.4739 20.0881H45.277V44.7146H51.4739V20.0881ZM73.7373 41.1486V31.2676C72.5344 26.5566 66.851 26.2383 63.6341 26.2383C58.9601 26.2383 54.1132 27.0283 53.427 32.6188H59.4703C59.6415 31.5538 59.9022 29.8268 62.9063 29.8268C64.4499 29.8268 67.1037 29.9291 67.1037 31.9536C67.1037 32.9818 65.9456 33.2905 65.0018 33.3928L59.3456 34.0453C55.5289 34.4914 52.6976 36.3096 52.6976 39.8757C52.6976 43.648 56.2151 45.1912 59.6463 45.1912C63.7205 45.1912 65.9024 43.6832 67.2748 42.551C67.4044 43.5808 67.4892 43.8527 67.8315 44.713H73.8061L73.7373 41.1486ZM107.038 32.4733C107.038 28.4579 102.865 26.8732 98.4737 26.8732C94.8874 26.8732 93.2414 28.8961 92.4816 29.7868C90.9635 27.8327 89.4855 26.8732 86.2367 26.8732C82.2696 26.8732 82.1385 28.5747 81.3754 29.7756H81.2939V27.1003H75.1321V44.7178H81.5466V34.234C81.5466 32.2446 82.4312 31.1173 85.2177 31.1716C87.9227 31.2244 88.0074 32.8283 88.0074 34.3715V44.7178H94.6714V34.4067C94.6714 32.2446 95.2217 31.1029 98.173 31.1732C100.406 31.226 101.294 32.1087 101.129 34.2691V44.7194H107.036V32.4733H107.038ZM119.379 30.0347C114.934 30.0347 114.112 33.2601 114.112 35.5916C114.112 37.9247 114.934 41.1502 119.379 41.1502C123.824 41.1502 124.65 37.9247 124.65 35.5916C124.65 33.2601 123.824 30.0347 119.379 30.0347ZM26.7103 25.1397L31.338 34.8816H22.3577L26.7103 25.1397ZM66.851 38.1646C66.851 40.3938 64.1476 41.7658 61.4891 41.7658C60.3325 41.7658 58.7025 41.2509 58.7025 39.5702C58.7025 37.5809 60.5469 37.1348 62.7767 36.8261C65.2641 36.5191 66.2511 36.2073 66.851 35.8315V38.1646ZM133.097 25.2741C133.097 26.9036 131.878 27.8487 130.517 27.8487C129.146 27.8487 127.927 26.902 127.927 25.2741C127.927 23.6462 129.146 22.7011 130.517 22.7011C131.878 22.6995 133.097 23.6462 133.097 25.2741ZM132.353 25.2741C132.353 24.0891 131.51 23.3007 130.517 23.3007C129.495 23.3007 128.668 24.0907 128.668 25.2741C128.668 26.459 129.497 27.257 130.517 27.249V27.257C131.51 27.257 132.353 26.459 132.353 25.2741ZM131.71 26.6573H131.008L130.368 25.4915H130.088V26.6573H129.495V23.8844H130.528C131.243 23.8844 131.666 24.0891 131.666 24.7224C131.666 25.2325 131.365 25.418 131 25.4436L131.71 26.6573ZM131.032 24.6616C131.032 24.3738 130.727 24.3546 130.504 24.3546H130.088V25.023H130.61C130.875 25.023 131.032 24.967 131.032 24.6616Z" fill="#FFF22D"/>
</g>
<defs>
<clipPath id="clip0_389_23335">
<rect width="140.582" height="64.5918" fill="white"/>
</clipPath>
</defs>
</svg>
