<svg width="141" height="48" viewBox="0 0 141 48" fill="none" xmlns="http://www.w3.org/2000/svg">
<g clip-path="url(#clip0_389_23313)">
<path fill-rule="evenodd" clip-rule="evenodd" d="M137.975 41.8956C137.975 41.3577 137.586 41.0896 136.806 41.0896H135.458V42.7032H136.359C137.437 42.7032 137.975 42.4335 137.975 41.8956ZM138.603 41.8956C138.603 42.6736 138.097 43.0618 137.076 43.0618L138.515 45.2149H137.884L136.536 43.0618H135.458V45.2149H134.92V40.6406H136.897C137.437 40.6406 137.856 40.731 138.156 40.9087C138.454 41.0896 138.603 41.417 138.603 41.8956ZM140.042 42.9713C140.042 41.9548 139.714 41.088 139.053 40.3692C138.393 39.652 137.523 39.2934 136.445 39.2934C135.489 39.2934 134.648 39.6537 133.931 40.3692C133.209 41.0896 132.853 41.9548 132.853 42.9713C132.853 43.9879 133.198 44.8415 133.887 45.5291C134.576 46.2166 135.43 46.5604 136.447 46.5604C137.467 46.5604 138.321 46.2166 139.01 45.5291C139.699 44.8415 140.042 43.9879 140.042 42.9713ZM28.0452 25.3911L27.9546 14.0893L22.2021 25.3911H28.0452ZM140.582 42.9713C140.582 44.1063 140.193 45.0636 139.414 45.8416C138.634 46.6196 137.647 47.0078 136.445 47.0078C135.367 47.0078 134.408 46.6196 133.57 45.8416C132.73 45.0636 132.311 44.1063 132.311 42.9713C132.311 41.8364 132.717 40.8643 133.524 40.0567C133.902 39.6668 134.356 39.3583 134.858 39.1501C135.36 38.9419 135.9 38.8384 136.443 38.846C137.645 38.846 138.632 39.2342 139.412 40.0122C140.192 40.7903 140.582 41.7772 140.582 42.9713ZM137.256 4.2202L133.93 14.0877C132.072 13.1304 130.407 12.428 128.94 11.9806C127.472 11.5316 126.229 11.3079 125.209 11.3079C124.073 11.3079 123.203 11.4872 122.605 11.8457C122.003 12.2043 121.584 12.6534 121.342 13.1912C120.984 13.7308 120.805 14.4183 120.805 15.2539C120.805 15.851 120.91 16.3757 121.119 16.8247C121.329 17.2721 122.079 18.0797 123.366 19.2459C124.592 20.3542 125.805 21.4755 127.007 22.6097C128.143 23.6854 128.878 24.493 129.209 25.0309C129.537 25.5688 129.943 26.4669 130.422 27.7235C130.899 28.9802 131.141 30.3833 131.141 31.9393C131.141 33.8523 130.543 36.0498 129.344 38.5319C128.143 41.014 126.092 43.0766 123.186 44.7215C120.28 46.3663 117.028 47.1887 113.435 47.1887C110.318 47.1887 107.548 46.7101 105.12 45.7528C102.692 44.7955 100.699 43.5997 99.1415 42.1654L102.557 31.76C104.411 32.8961 106.367 33.857 108.4 34.6303C110.318 35.3474 112.356 35.706 114.513 35.706C115.711 35.706 116.715 35.3622 117.523 34.6747C118.331 33.9871 118.736 33.1647 118.736 32.2074C118.736 31.0708 118.077 30.0543 116.76 29.1578C114.599 27.4242 112.893 25.9142 111.635 24.6279C110.376 23.3433 109.54 22.2067 109.118 21.2198C108.725 20.3142 108.438 19.3658 108.265 18.3939C108.12 17.5649 108.044 16.7254 108.039 15.8839C108.039 13.6107 108.535 11.3835 109.522 9.20082C110.51 7.0181 111.995 5.19395 113.971 3.72839C115.947 2.26282 117.805 1.27591 119.544 0.767647C121.327 0.253725 123.176 -0.00273194 125.032 0.0060789C127.727 0.0060789 130.228 0.438676 132.537 1.30551C134.843 2.17235 136.417 3.14446 137.256 4.2202ZM38.2908 45.5719H28.3139L28.2232 35.0777H17.0777L11.7752 45.5719H0L23.1911 0.992992H37.8425L38.2908 45.5719ZM86.6493 0.992992L63.4599 45.5719H47.5491L46.7415 0.992992H58.2464L58.6964 32.1186L74.8741 0.992992H86.6493ZM103.547 0.992992L88.5366 45.5735H77.5723L92.583 0.992992H103.547Z" fill="#CC2229"/>
</g>
<defs>
<clipPath id="clip0_389_23313">
<rect width="140.582" height="47.194" fill="white"/>
</clipPath>
</defs>
</svg>
