<svg width="141" height="70" viewBox="0 0 141 70" fill="none" xmlns="http://www.w3.org/2000/svg">
<g clip-path="url(#clip0_389_23316)">
<path d="M131.182 3.39648L123.353 6.79296V31.3408C123.353 33.3649 125.052 36.6967 128.05 36.6967H135.164V31.6041H133.335C132.291 31.6688 131.247 31.3408 131.182 29.4462V15.6661H135.099V10.5735H131.182V3.39648ZM137.627 32.5665H138.382C138.71 32.5665 139.076 32.6873 139.076 33.1103C139.076 33.5893 138.623 33.6325 138.205 33.6325H137.623V33.8353H138.334L139.158 35.0998H139.417L138.602 33.8397C138.99 33.7749 139.309 33.5591 139.309 33.1146C139.309 32.6183 139.038 32.355 138.416 32.355H137.385V35.0955H137.623V32.5665H137.627Z" fill="#3B4095"/>
<path d="M138.235 31.4139C138.548 31.4004 138.861 31.4504 139.154 31.5609C139.447 31.6714 139.715 31.84 139.941 32.0568C140.167 32.2735 140.347 32.5338 140.47 32.822C140.593 33.1102 140.656 33.4203 140.656 33.7336C140.656 34.0469 140.593 34.357 140.47 34.6452C140.347 34.9334 140.167 35.1937 139.941 35.4104C139.715 35.6271 139.447 35.7958 139.154 35.9063C138.861 36.0168 138.548 36.0668 138.235 36.0533C137.638 36.0275 137.073 35.7718 136.659 35.3396C136.246 34.9074 136.015 34.3321 136.015 33.7336C136.015 33.1351 136.246 32.5598 136.659 32.1276C137.073 31.6954 137.638 31.4397 138.235 31.4139L138.24 31.6167C137.962 31.6119 137.686 31.6636 137.429 31.7685C137.172 31.8734 136.939 32.0294 136.744 32.2271C136.548 32.4248 136.395 32.66 136.294 32.9186C136.192 33.1772 136.144 33.4537 136.152 33.7314C136.139 34.0129 136.184 34.2939 136.283 34.5576C136.382 34.8213 136.534 35.0622 136.728 35.2657C136.923 35.4692 137.157 35.6311 137.416 35.7416C137.675 35.8521 137.954 35.9089 138.236 35.9086C138.517 35.9083 138.796 35.8509 139.055 35.7399C139.313 35.6288 139.547 35.4665 139.741 35.2626C139.936 35.0587 140.087 34.8175 140.185 34.5536C140.284 34.2897 140.328 34.0085 140.315 33.7271C140.322 33.451 140.273 33.1763 140.172 32.9194C140.07 32.6625 139.918 32.4286 139.725 32.2317C139.531 32.0347 139.3 31.8788 139.045 31.7732C138.79 31.6675 138.516 31.6143 138.24 31.6167L138.235 31.4139ZM27.9531 10.9703V30.8787C27.9531 33.753 30.4336 37.2099 35.196 37.2099C37.4823 37.2099 39.2423 37.2747 41.5243 34.5989V36.6877H49.3539V10.966H41.5243V29.5063C41.5243 31.6599 39.5012 32.3116 38.7851 32.3116C38.069 32.3116 35.7827 31.9879 35.7827 28.3972V10.9703H27.9531ZM64.7542 12.5326C63.0368 10.9879 60.7996 10.1493 58.4905 10.1848C56.0101 10.2495 51.1182 9.53313 51.1829 23.5032C51.2477 37.7969 56.2732 37.0804 58.2964 37.1452C60.3196 37.2099 62.8 37.1452 64.7585 34.7284V36.6877H72.588V0.262939H64.7585L64.7542 12.5326Z" fill="#3B4095"/>
<path d="M64.7544 18.4755C64.7544 17.0384 63.7752 15.3423 61.8167 15.2775C59.8582 15.2128 59.2068 17.0384 59.1421 19.589C59.0774 22.1352 59.2068 26.9645 59.2068 27.9442C59.2068 28.9239 59.6641 32.1218 61.9461 32.1218C64.2281 32.1218 64.7501 30.2963 64.7501 28.5959V18.4755H64.7544Z" fill="white"/>
<path d="M88.3761 12.5328C87.2028 11.3589 85.831 10.5735 81.5258 10.5735C77.2163 10.5735 74.8696 14.0347 74.8049 22.9769C74.7402 31.9191 76.112 36.7182 82.1125 36.8175C86.0941 36.8822 87.8585 35.3156 88.3761 34.5948V40.2096C88.3761 42.4926 86.8102 42.6912 85.7663 42.6912C84.7223 42.6912 82.8286 42.6912 82.9623 38.7725H75.068C75.068 43.3428 77.35 47.5205 85.5074 47.4557C93.6648 47.391 96.4041 45.0389 96.21 38.7725V10.9705H88.3804L88.3761 12.5328Z" fill="#3B4095"/>
<path d="M87.5952 38.7769V40.214C87.5952 41.6425 86.9525 41.9144 85.7662 41.9144C85.1709 41.9144 84.6877 41.8842 84.3383 41.526C83.9026 41.0771 83.6999 40.1363 83.743 38.8071L87.5952 38.7769Z" fill="#E0912F"/>
<path d="M74.2832 38.7768C74.2832 41.6036 75.1028 43.8521 76.7205 45.4532C78.6142 47.3349 81.5735 48.2714 85.512 48.2412C90.3391 48.2023 93.2725 47.3694 95.0239 45.5482C96.4648 44.0506 97.0903 42.0006 96.991 38.8588L130.401 38.7725L0.0253906 69.5911V38.7768H74.2832Z" fill="#E0912F"/>
<path d="M88.3547 19.1619C88.3547 16.8444 87.0951 15.1267 85.5421 15.1267C83.9891 15.1267 82.7295 15.9942 82.7295 18.6397V26.995C82.7295 30.3569 83.9891 31.0949 85.5421 31.0949C87.0951 31.0949 88.3547 29.3816 88.3547 27.0597V19.1619Z" fill="white"/>
<path d="M109.717 9.66284C103.647 9.66284 98.0352 12.4033 98.0352 23.3739C98.0352 34.3402 103.971 37.085 109.717 37.085C115.459 37.085 120.872 34.3402 121.463 27.2279H112.784C112.784 29.6447 112.456 31.535 110.045 31.535C107.629 31.535 106.193 29.3814 106.128 24.8111H121.399C121.33 18.9978 121.658 9.92179 109.717 9.66284Z" fill="#3B4095"/>
<path d="M106.062 20.3053H113.176C113.241 16.0629 111.675 15.0833 109.587 15.0833C107.495 15.0789 106.062 16.5808 106.062 20.3053Z" fill="white"/>
<path d="M0.0263672 -0.000244141H16.7294C25.0852 -0.000244141 26.2586 5.48505 26.1249 8.74774C25.9911 12.0104 25.6029 15.6659 21.1683 17.4957C24.6927 18.0179 27.0394 21.0174 27.0394 26.3732C27.0394 31.729 23.3856 36.6921 16.3369 36.6921H0.0263672V-0.000244141Z" fill="#3B4095"/>
<path d="M8.50586 5.74405H13.855C16.728 5.61457 17.2499 8.61832 17.2499 9.92167C17.2499 11.225 17.1205 14.492 13.7256 14.492H8.50586V5.74405ZM8.50586 21.0217H13.9887C16.8617 20.8923 17.9056 23.896 17.9056 25.1994C17.9056 27.0249 17.3837 30.1625 13.9887 30.1625H8.50586V21.0217Z" fill="white"/>
<path d="M93.7295 67.7655L134.706 38.5178V67.7655H93.7295Z" fill="#E0912F"/>
</g>
<defs>
<clipPath id="clip0_389_23316">
<rect width="140.582" height="69.5912" fill="white"/>
</clipPath>
</defs>
</svg>
