<svg width="141" height="66" viewBox="0 0 141 66" fill="none" xmlns="http://www.w3.org/2000/svg">
<path d="M20.6552 14.3578C20.3334 14.5625 20.2748 15.703 20.3041 19.8848C20.3334 23.4817 20.2748 25.207 20.0408 25.3533C19.8652 25.4702 18.9583 25.2363 18.0513 24.8561C16.7054 24.3005 15.857 24.1835 13.6041 24.1835C9.47883 24.2128 7.16749 25.1486 4.35877 27.9559C2.74961 29.5643 2.07669 30.6463 1.02342 33.2489C-0.000589252 35.7638 0.438273 40.472 1.98892 43.601C2.95442 45.5603 5.52907 47.9875 7.89893 49.1864C9.9177 50.1807 10.0055 50.21 13.6041 50.21C17.4661 50.21 17.8757 50.093 21.0648 48.1629C21.9718 47.6366 21.9718 47.6366 22.8202 48.4261C24.2246 49.7128 26.0093 50.3854 27.7355 50.2977L29.2569 50.21V44.3906L28.0866 43.8057L26.9163 43.1916L26.8285 29.0379C26.7993 19.1829 26.653 14.7672 26.4482 14.4748C26.0678 14.0361 21.3281 13.9192 20.6552 14.3578ZM15.184 30.8802C19.2801 32.1084 21.3574 36.5242 19.5141 40.0626C17.3491 44.2151 12.4338 45.1801 9.24477 42.1096C7.19675 40.1795 6.52383 38.1033 7.16749 35.7346C7.89893 32.9857 10.5614 30.7632 13.4871 30.5001C13.6627 30.4708 14.4233 30.6463 15.184 30.8802ZM62.4934 14.504C62.2593 14.7672 62.2008 19.7386 62.2301 32.5471L62.3178 50.21H68.6375V32.4009C68.6375 18.1302 68.5497 14.5333 68.2571 14.3578C67.5842 13.9192 62.8737 14.0361 62.4934 14.504ZM74.4889 14.504C74.2549 14.7672 74.1964 19.7386 74.2256 32.5471L74.3134 50.21H80.75L80.8378 32.5178C80.8963 16.1417 80.8671 14.7965 80.3989 14.4456C79.6968 13.9484 74.9278 13.9777 74.4889 14.504ZM105.18 23.5987C104.975 23.8619 104.887 24.3882 104.975 24.9146C105.326 26.6107 104.566 27.1956 103.542 26.0551C100.587 22.8091 93.2722 23.7449 89.0592 27.8974C87.1282 29.7982 86.0456 31.9037 85.402 34.9743C84.9924 36.9628 84.9924 37.4307 85.402 39.5654C86.2212 43.9519 88.8836 47.4026 92.8919 49.3034C94.6766 50.1515 94.9984 50.21 98.3045 50.21C101.669 50.21 101.903 50.1807 103.717 49.2742C104.77 48.7478 105.824 48.1629 106.116 47.9582C106.497 47.6658 106.76 47.7535 107.608 48.5139C108.984 49.7128 110.915 50.4147 112.524 50.2977L113.811 50.21L113.899 47.2564L113.987 44.2736L112.845 43.8349C112.026 43.5133 111.646 43.1331 111.5 42.5775C111.383 42.1388 111.324 37.7231 111.353 32.7225C111.383 25.2948 111.324 23.6279 111.002 23.4232C110.768 23.277 109.452 23.16 108.077 23.16C106.175 23.16 105.443 23.277 105.18 23.5987ZM100.967 31.2604C103.249 32.3131 104.887 34.828 104.887 37.2845C104.887 39.2145 104.302 40.5012 102.693 42.0219C100.206 44.449 96.7246 44.5368 94.0622 42.2266C92.4238 40.8521 91.7216 39.3607 91.7216 37.343C91.7216 35.062 92.6286 33.3951 94.6766 31.8452C96.4613 30.5001 98.8312 30.2661 100.967 31.2604ZM118.931 23.7449C118.726 24.125 118.668 28.6577 118.697 37.2552L118.785 50.21H124.929L125.075 42.8992C125.251 34.6526 125.251 34.6233 127.503 32.4593C129.025 30.9972 130.751 30.3831 132.565 30.6755C133.296 30.7925 133.589 30.6755 134.116 30.0322C134.438 29.5935 134.73 29.0379 134.73 28.8332C134.73 28.5992 134.847 28.1898 135.023 27.8974C135.169 27.6342 135.52 26.9031 135.783 26.289C136.251 25.2363 136.251 25.1778 135.725 24.7684C134.993 24.242 131.951 23.9203 130.02 24.1835C128.645 24.3882 128.323 24.5637 126.977 25.9674C126.158 26.8447 125.397 27.4588 125.28 27.3418C125.163 27.2541 125.075 26.406 125.075 25.4995C125.075 24.5929 124.929 23.7156 124.724 23.5109C124.49 23.277 123.407 23.16 121.798 23.16C119.575 23.16 119.194 23.2185 118.931 23.7449ZM41.3987 24.476C38.8533 25.207 37.2734 26.1136 35.5472 27.8389C33.5285 29.8859 32.4752 31.816 31.8608 34.6818C31.4219 36.6704 31.3927 37.2552 31.7145 39.2145C32.563 44.3906 35.8106 48.2507 40.6088 49.8006C42.0717 50.2977 43.0079 50.3854 45.3485 50.2977C47.9232 50.1807 48.5083 50.0637 50.3223 49.2157C55.5886 46.7008 58.4558 41.2031 57.5781 35.179C56.8467 30.2661 53.8624 26.7569 48.5961 24.6514C47.1625 24.0666 43.2127 23.9788 41.3987 24.476ZM47.1625 31.0849C48.3035 31.4943 50.2345 33.4829 50.7904 34.7988C51.6096 36.6996 51.5218 38.5127 50.4978 40.2965C47.8061 44.9754 42.1009 45.0924 39.0289 40.5597C37.6245 38.4834 37.7123 35.8516 39.2337 33.6291C41.0476 31.0264 44.2367 30.0029 47.1625 31.0849ZM132.594 43.3378C130.693 44.5368 130.049 47.2271 131.219 49.0987C132.389 51.058 134.496 51.6721 136.544 50.6778C140.582 48.7478 139.206 42.6945 134.73 42.7822C133.999 42.7822 133.062 43.0161 132.594 43.3378Z" fill="#C21717"/>
</svg>
