<svg width="141" height="28" viewBox="0 0 141 28" fill="none" xmlns="http://www.w3.org/2000/svg">
<g clip-path="url(#clip0_389_23301)">
<path d="M28.1211 -0.000244141H140.576V27.9962H28.1211V-0.000244141Z" fill="#231F20"/>
<path d="M85.835 19.6361C83.9927 19.6361 82.8491 19.0114 81.7954 18.1892V23.8615H78.604V9.51983H81.7954V10.5847C82.8772 9.74355 84.3601 9.26313 85.835 9.26313C88.1267 9.26313 89.9594 9.88952 91.2956 11.0305C92.3769 11.96 92.9284 13.1233 92.9284 14.4381C92.9284 17.5024 90.0908 19.6361 85.8345 19.6361M88.6378 12.2721C87.9155 11.6032 86.9696 11.2614 85.662 11.2614C83.2749 11.2614 81.796 12.5092 81.796 14.3442C81.796 15.163 82.124 15.9012 82.7059 16.4376C83.4316 17.1059 84.3533 17.451 85.662 17.451C86.9702 17.451 87.9155 17.1026 88.6378 16.4376C89.2242 15.9007 89.5286 15.1624 89.5292 14.3442C89.5292 13.5444 89.2242 12.8134 88.6378 12.2721ZM106.575 7.96783C105.887 7.96783 105.256 7.78159 104.839 7.4354C104.495 7.18708 104.314 6.86102 104.314 6.52936C104.314 6.20218 104.495 5.87501 104.84 5.60711C105.256 5.28049 105.887 5.073 106.545 5.073C107.225 5.073 107.854 5.28049 108.277 5.60711C108.617 5.87445 108.798 6.20218 108.798 6.52992C108.798 7.32969 107.802 7.96783 106.575 7.96783ZM108.295 19.442H104.798V9.52039H108.295V19.442ZM115.778 19.7826C113.024 19.7826 111.445 19.2569 110.024 18.003L109.833 17.824L110.079 17.6915L112.234 16.5483L112.369 16.4633L112.506 16.5729C113.406 17.1417 114.225 17.6691 115.778 17.6691C116.896 17.6691 117.699 17.4286 118.136 17.0763C118.302 16.9454 118.385 16.8117 118.385 16.6367C118.385 15.8246 116.759 15.5796 115.586 15.4051L115.176 15.3604C112.751 15.0103 110.233 14.4152 110.233 12.3895C110.233 11.687 110.562 11.0713 111.186 10.5422C112.221 9.72957 114.251 9.22062 116.322 9.22062C118.694 9.22062 120.438 9.83751 121.42 10.8923L121.587 11.0713L119.158 12.2581L118.996 12.3442L118.859 12.2374C118.094 11.6412 117.33 11.3325 116.156 11.3325C115.044 11.3325 114.101 11.6412 114.101 12.2133C114.101 13.0746 115.778 13.2911 117.002 13.446C117.193 13.489 117.387 13.489 117.523 13.5338C119.895 13.885 122.247 14.5243 122.247 16.5483C122.247 18.9264 118.694 19.7826 115.778 19.7826ZM37.5561 19.3565V13.6003C37.5561 12.9091 37.323 12.3912 36.863 12.0008C36.2187 11.465 35.2672 11.356 34.5719 11.356C32.2623 11.356 31.5933 12.4354 31.5933 14.3101V19.3604H28.1216V9.52095H31.5927V10.6412C32.5161 9.79892 33.8058 9.26368 35.6801 9.26368C37.4269 9.26368 38.9198 9.71391 39.8432 10.4902C40.6408 11.1602 41.0255 12.0226 41.0255 13.0791V19.3565H37.5561ZM41.9169 11.5081V9.45999H44.203V6.78943H47.6876V9.46111H51.3458V11.5081H47.6876V16.0355C47.6876 16.9991 48.1004 17.6003 49.6574 17.6003C50.2764 17.6003 50.9049 17.5187 51.3458 17.3005V19.3251C50.6111 19.5667 49.5995 19.6456 48.7761 19.6456C45.041 19.6456 44.203 18.503 44.203 16.2374V11.5086L41.9169 11.5081ZM63.1113 16.5533C62.0182 17.2043 61.283 17.4611 59.8648 17.4907C58.2078 17.5293 56.7081 17.0545 55.9094 16.2782C55.5994 15.9762 55.4152 15.6266 55.341 15.2815L66.1404 15.2782C66.7054 15.2709 66.9997 15.0405 66.9997 14.3419C66.9773 13.1619 66.4398 11.9208 65.5057 11.0114C64.2689 9.79388 62.0104 9.05675 59.5272 9.05675C56.9699 9.05675 54.7198 9.92364 53.3487 11.2709C52.4461 12.1596 51.9547 13.2228 51.9547 14.3716C51.9547 15.5651 52.4461 16.6702 53.3493 17.555C54.6906 18.8576 56.9991 19.6523 59.6154 19.6523C60.7668 19.6523 62.1856 19.4996 63.2758 19.121C63.7643 18.9547 64.2344 18.7392 64.6789 18.4778C65.1288 18.213 65.541 17.8893 65.9045 17.5153C66.1291 17.2787 66.328 17.0187 66.4808 16.7323C66.5953 16.4941 66.1864 16.5494 65.9269 16.5444L63.1292 16.5422L63.1113 16.5533ZM63.1848 13.352H55.1422C55.4253 12.5948 57.0221 11.1747 59.4766 11.1417C61.9435 11.1082 63.1427 12.1384 63.6583 12.8811C63.8841 13.2877 63.5095 13.352 63.1848 13.352ZM77.1678 9.44154C77.1678 9.44154 76.5089 9.30004 75.8596 9.30004C74.2954 9.30004 72.7002 10.2866 71.8245 11.1032V9.55787H68.3539V19.3928H71.8245V14.4751C71.8245 12.5556 73.085 11.6311 75.631 11.6311C75.9624 11.6311 76.3736 11.6736 76.8892 11.7558L77.1678 11.8218V9.44154ZM103.289 9.44154C103.289 9.44154 102.631 9.30004 101.982 9.30004C100.417 9.30004 98.8216 10.2866 97.9459 11.1032V9.55787H94.4764V19.3928H97.9459V14.4751C97.9459 12.5556 99.2074 11.6311 101.754 11.6311C102.084 11.6311 102.495 11.6736 103.011 11.7558L103.289 11.8218V9.44154ZM134.206 16.5533C133.113 17.2043 132.376 17.4611 130.959 17.4907C129.3 17.5293 127.802 17.0545 127.004 16.2782C126.694 15.9762 126.508 15.6266 126.434 15.2815L137.233 15.2782C137.799 15.2709 138.092 15.0405 138.092 14.3419C138.073 13.1619 137.533 11.9208 136.601 11.0114C135.363 9.79388 133.104 9.05675 130.62 9.05675C128.064 9.05675 125.815 9.92364 124.441 11.2709C123.54 12.1596 123.048 13.2228 123.048 14.3716C123.048 15.5651 123.54 16.6702 124.441 17.555C125.784 18.8576 128.093 19.6523 130.709 19.6523C131.861 19.6523 133.279 19.4996 134.368 19.121C134.857 18.9549 135.328 18.7394 135.773 18.4778C136.222 18.213 136.634 17.8893 136.998 17.5153C137.225 17.2817 137.419 17.0183 137.575 16.7323C137.689 16.4941 137.279 16.5494 137.021 16.5444L134.223 16.5422L134.206 16.5533ZM134.279 13.352H126.238C126.518 12.5948 128.116 11.1747 130.571 11.1417C133.038 11.1082 134.236 12.1384 134.752 12.8811C134.978 13.2877 134.603 13.352 134.279 13.352ZM26.2506 13.0757C25.6979 10.3409 22.484 7.57074 17.4076 7.57074H17.4037C12.926 7.57074 9.67386 9.93538 8.6224 12.3621C8.59881 12.4113 8.51568 12.6233 8.48647 12.7161H0.00683594V15.2021H23.7472C24.9195 15.1932 25.758 15.1697 26.1226 14.7256C26.3714 14.4225 26.4113 13.913 26.2506 13.0757ZM22.4936 12.5282C22.4149 12.6826 22.1397 12.7105 21.8802 12.7161H12.1054C12.1812 12.5372 12.3092 12.3621 12.3092 12.3621C13.2315 11.0142 15.367 10.0618 17.4823 10.0567C19.6925 10.05 21.4859 10.7933 22.4009 12.0959C22.5172 12.2967 22.5458 12.4303 22.4936 12.5282ZM17.357 17.7715C15.3738 17.7715 13.4607 16.9605 12.4671 15.7659H8.68643C9.68172 18.1445 12.6912 20.4549 17.3986 20.4476C22.2279 20.442 24.1736 18.7631 25.4379 17.1182C25.5002 17.0332 25.5367 16.9767 25.5828 16.8939H21.1495C20.2733 17.5992 18.6028 17.772 17.357 17.772" fill="white"/>
<path d="M0.00683594 -0.000244141V12.7161H8.48591C8.51568 12.6233 8.59881 12.4113 8.6224 12.3621C9.67386 9.93481 12.9254 7.57073 17.4037 7.57073H17.4076C22.4835 7.57073 25.6979 10.3408 26.2506 13.0752C26.4113 13.913 26.3714 14.423 26.1226 14.725C25.7575 15.1697 24.9195 15.1937 23.7467 15.2021H0.00683594V27.9962H28.1221V-0.000244141H0.00683594ZM25.4379 17.1182C24.1736 18.7636 22.2285 20.442 17.3986 20.4476C12.6918 20.4549 9.68173 18.1445 8.68699 15.7659H12.4671C13.4613 16.9599 15.3738 17.7714 17.357 17.7714C18.6028 17.7714 20.2733 17.5992 21.1495 16.8934H25.5828C25.5373 16.9773 25.5002 17.0332 25.4379 17.1182Z" fill="#009750"/>
<path d="M22.4931 12.5284C22.5454 12.4305 22.5167 12.2968 22.4004 12.0961C21.486 10.7935 19.692 10.0502 17.4818 10.0569C15.3666 10.0625 13.2316 11.0144 12.3088 12.3623C12.3088 12.3623 12.1813 12.5373 12.1055 12.7163H21.8792C22.1393 12.7107 22.4139 12.6827 22.4931 12.5284Z" fill="#00A564"/>
<path d="M24.6476 13.9645C24.8285 13.8326 24.8919 13.6586 24.8807 13.3499C24.8352 12.0468 22.5571 8.55127 17.3992 8.55127C12.4334 8.55127 10.6175 11.4232 10.1799 12.3057C10.1799 12.3057 10.0721 12.4998 9.98615 12.7157H10.5636C10.6152 12.5887 10.6619 12.4925 10.7343 12.3622C11.1398 11.6172 12.9979 9.05854 17.3992 9.05854C22.5295 9.05854 24.3342 12.5233 24.3353 13.2699C24.3353 13.3896 24.3016 13.4472 24.2612 13.4813C24.1163 13.6172 23.923 13.6838 22.6396 13.6838H0.00683594V14.1905H22.6391C24.2977 14.1905 24.487 14.0814 24.6476 13.9645ZM23.859 16.8773L23.8034 16.9494C21.805 19.4293 17.6328 19.3778 17.1638 19.3633C13.591 19.304 11.1353 17.4841 10.2754 15.752H10.8584C11.6807 17.181 13.755 18.7688 17.179 18.856C17.3396 18.8633 21.118 19.0137 23.1738 16.8773H23.859Z" fill="#009750"/>
<path d="M2.85484 25.1899C3.06154 25.3974 3.16545 25.648 3.16545 25.9394C3.16545 26.238 3.06154 26.4891 2.85484 26.6966C2.75762 26.7977 2.6405 26.8778 2.5108 26.9317C2.38111 26.9857 2.24163 27.0125 2.10107 27.0104C1.96028 27.0128 1.8205 26.9862 1.6905 26.9323C1.5605 26.8784 1.44308 26.7984 1.34562 26.6972C1.24526 26.5984 1.16612 26.4803 1.11301 26.3502C1.05991 26.22 1.03394 26.0804 1.03669 25.9399C1.03669 25.648 1.14004 25.3974 1.34786 25.1894C1.55568 24.9819 1.80675 24.8767 2.10107 24.8767C2.39483 24.8767 2.6459 24.9819 2.85484 25.1899ZM2.97841 25.0697C2.8644 24.9535 2.72779 24.8618 2.57693 24.8001C2.42607 24.7383 2.26415 24.7079 2.10107 24.7106C1.93849 24.7079 1.77707 24.7383 1.62676 24.8001C1.47645 24.8618 1.34044 24.9536 1.2271 25.0697C0.98558 25.3113 0.864258 25.601 0.864258 25.9399C0.864258 26.2839 0.984457 26.5758 1.22429 26.8163C1.46469 27.059 1.75676 27.1798 2.10051 27.1798C2.44369 27.1798 2.73577 27.059 2.97785 26.8163C3.21993 26.5758 3.34125 26.2833 3.34125 25.9399C3.34125 25.6004 3.22049 25.3102 2.97841 25.0697ZM2.28362 25.8845C2.20991 25.9075 2.13271 25.9174 2.05558 25.9136H1.83989V25.4231H2.0449C2.1769 25.4231 2.27407 25.4399 2.33417 25.4735C2.3937 25.507 2.4246 25.5736 2.4246 25.6715C2.4246 25.776 2.37798 25.8465 2.28418 25.884L2.28362 25.8845ZM1.60005 26.615H1.83989V26.0803H2.02918C2.15668 26.0803 2.24486 26.0954 2.29597 26.1239C2.38191 26.1743 2.4246 26.2772 2.4246 26.4343V26.5434L2.42909 26.5859L2.43246 26.601C2.43316 26.6058 2.43448 26.6105 2.43639 26.615H2.6605L2.65208 26.5982C2.64341 26.5757 2.63921 26.5518 2.63972 26.5277C2.63781 26.4942 2.63687 26.4606 2.63691 26.4271V26.3275C2.63456 26.2515 2.60845 26.1782 2.56221 26.1178C2.51278 26.0451 2.43415 26.002 2.32743 25.9852C2.3974 25.976 2.46492 25.9534 2.52626 25.9187C2.61444 25.8616 2.65938 25.7733 2.65938 25.6513C2.65938 25.4813 2.58804 25.3661 2.44763 25.309C2.36899 25.2766 2.24486 25.2598 2.07636 25.2598H1.59949L1.60005 26.615Z" fill="white"/>
</g>
<defs>
<clipPath id="clip0_389_23301">
<rect width="140.582" height="27.9964" fill="white"/>
</clipPath>
</defs>
</svg>
