<svg width="141" height="36" viewBox="0 0 141 36" fill="none" xmlns="http://www.w3.org/2000/svg">
<g clip-path="url(#clip0_389_23330)">
<path d="M0 35.9954H140.582V0H0V35.9954Z" fill="#0E8102"/>
<path d="M69.9536 24.4915C40.7407 24.4915 19.9795 26.2969 19.9795 26.2969V27.0811H71.68L72.2311 24.4858C71.5619 24.4858 70.769 24.4858 69.9536 24.4915ZM73.7887 24.4915L73.3164 27.0868H120.473V26.3025C120.473 26.2969 100.994 24.6382 73.7887 24.4915Z" fill="#FFEA00"/>
<path d="M32.7442 9.08352L30 22.0486H39.8689L40.2625 19.6113H33.5258L34.15 16.6268H40.2625L40.7349 14.0315H34.628L35.179 11.5942H41.9945L42.3881 9.07788L32.7442 9.08352ZM65.7247 12.2261C61.8784 12.2261 60.3208 14.2797 59.691 17.2587C59.0611 20.232 60.5288 22.3646 63.6048 22.3646C67.2599 22.3646 69.0087 20.3109 69.6385 17.332C70.274 14.3587 69.273 12.2261 65.7247 12.2261ZM87.7343 12.2261C83.888 12.2261 82.409 14.2797 81.7792 17.2587C81.1494 20.2376 82.5384 22.3646 85.6199 22.3646C88.7408 22.3646 90.5066 20.8751 91.3388 18.5902H88.4428C88.0492 19.5154 87.4138 20.1642 86.0923 20.1642C84.3659 20.1642 84.2085 18.6861 84.5234 17.1797C84.8439 15.6733 85.6143 14.1951 87.3406 14.1951C88.6734 14.1951 89.0389 15.1317 88.9883 16.2375H91.8055C91.9742 13.8509 90.8271 12.2261 87.7343 12.2261ZM77.6292 12.384C76.7632 12.384 75.363 12.5928 74.6545 13.3262L74.812 12.621H71.9947C71.8991 13.2416 69.0987 27.0812 69.0987 27.0812H71.8429L73.0181 21.4224C73.558 22.263 75.0875 22.4436 75.7623 22.4436C78.5233 22.4436 79.7942 19.7637 80.3059 17.3376C80.8289 14.7931 80.3172 12.384 77.6292 12.384ZM98.4635 12.384C93.5375 12.2486 93.7624 15.4476 93.7624 15.4476H96.3492C96.3492 15.4476 96.3154 14.1895 98.1486 14.1895C98.1486 14.1895 99.8075 14.1161 99.5601 15.2896C99.5601 15.2896 99.5263 16.3052 98.3848 16.2318C98.3848 16.2318 92.9246 15.662 92.5084 19.6903C92.5084 19.6903 92.2835 22.5169 95.4832 22.5169C95.4832 22.5169 97.5863 22.4549 98.5366 21.4168C98.5366 21.4168 98.8009 22.043 99.7119 22.043H101.281L101.753 20.1586L101.517 20.0006C101.517 20.0006 101.326 20.0232 101.438 19.5267L102.456 14.5731C102.9 12.4292 98.4635 12.384 98.4635 12.384ZM43.3216 12.621L41.9888 18.7538C41.9214 19.0754 41.8089 19.6621 41.8314 20.2489C41.8764 21.6199 43.5577 22.2913 44.4968 22.2913C45.8071 22.2913 46.6449 21.964 47.3141 21.428V22.0543H50.1314C50.1932 21.5014 50.2719 20.9541 50.3675 20.4069L52.0152 12.621H49.1923L48.017 18.0429C47.6852 19.4195 46.6843 19.6903 45.9814 19.6903C44.7724 19.6903 44.6936 19.16 44.8848 18.2742L46.1388 12.6154H43.3216V12.621ZM53.8933 12.621C53.7865 13.3206 52.0152 22.0543 52.0152 22.0543H54.9899L56.0077 17.1797C56.1314 16.5647 56.092 15.9272 56.4801 15.3743C56.7893 14.9285 57.571 14.7819 58.049 14.748H59.3817L59.9271 12.6266C58.6338 12.6266 57.7903 12.5984 56.7162 13.3319V12.6266L53.8933 12.621ZM105.043 12.621C104.93 13.3206 103.165 22.0543 103.165 22.0543H106.139L107.078 17.1797C107.202 16.5647 107.241 15.9272 107.629 15.3743C107.939 14.9285 108.72 14.7819 109.198 14.748H110.452L111.077 12.6266C109.783 12.6266 108.94 12.5984 107.866 13.3319V12.6266L105.043 12.621ZM65.3311 14.1951C67.0575 14.1951 67.1362 15.7523 66.8213 17.2587C66.5064 18.7651 65.9834 20.1642 64.0771 20.1642C62.3508 20.1642 62.1933 18.6861 62.5082 17.1797C62.8287 15.6733 63.6048 14.1951 65.3311 14.1951ZM76.3752 14.5844C77.6573 14.5844 78.0116 15.8087 77.708 17.2587C77.3987 18.7086 76.6452 19.9329 75.2 19.9329C73.6817 19.9329 73.513 18.5563 73.7885 17.2587C74.0641 15.9554 74.857 14.5844 76.3752 14.5844ZM98.8571 17.8849C98.8571 17.8849 98.4466 20.4802 96.3492 20.4802C96.3492 20.4802 95.1739 20.5592 95.1739 19.617C95.1739 19.617 95.202 18.4096 96.8946 18.2009C96.9002 18.2009 98.2161 18.1106 98.8571 17.8849Z" fill="white"/>
</g>
<defs>
<clipPath id="clip0_389_23330">
<rect width="140.582" height="35.9954" fill="white"/>
</clipPath>
</defs>
</svg>
