<svg width="141" height="49" viewBox="0 0 141 49" fill="none" xmlns="http://www.w3.org/2000/svg">
<g clip-path="url(#clip0_389_23310)">
<path d="M71.9184 2.46392C71.5075 3.79064 70.9703 5.24372 70.749 5.68596C70.5278 6.1282 70.3382 6.6968 70.3382 6.94951C70.3382 7.23381 70.1802 7.61287 69.9905 7.8024C69.1689 8.62371 70.117 8.84483 74.8891 8.84483C78.3971 8.84483 79.8192 8.75006 80.0404 8.43418C80.1985 8.24465 80.6725 7.04428 81.0518 5.84391C81.431 4.61195 81.9683 3.19046 82.2211 2.62186C82.4739 2.08485 82.6635 1.26355 82.6635 0.821306V0H72.7084L71.9184 2.46392ZM88.0361 0.47383C88.0361 0.72654 87.5621 1.13719 87.0248 1.3899C86.4559 1.61102 85.6659 2.14803 85.2866 2.55868C84.3385 3.60111 83.106 5.97026 82.8216 7.29699C82.6951 7.89717 82.4739 8.49736 82.3475 8.68689C82.2211 8.84483 81.9999 9.50819 81.8735 10.1084C81.747 10.7086 81.5258 11.3403 81.3994 11.5299C81.273 11.6878 81.0518 12.3512 80.9253 12.9514C80.7989 13.5515 80.5777 14.1833 80.4513 14.3729C80.3249 14.5308 80.1037 15.1626 79.9772 15.7312C79.8824 16.2998 79.5664 17.1842 79.282 17.7213C79.0291 18.2583 78.9027 18.7637 78.9975 18.89C79.1239 18.9848 82.2843 19.1112 86.0135 19.1743C92.2394 19.2691 92.8083 19.2059 92.9663 18.7005C93.0611 18.4162 93.2507 17.9424 93.4087 17.6581C93.5667 17.3738 93.788 16.6156 93.8828 15.9839C94.0092 15.3521 94.2304 14.7519 94.3884 14.6571C94.5464 14.5624 94.6729 14.2465 94.6729 13.9622C94.6729 13.6779 94.8941 13.0145 95.1469 12.5091C95.3997 12.0353 95.621 11.4983 95.621 11.3403C95.621 11.214 94.7993 11.056 93.8195 10.9929C92.271 10.8981 91.9866 10.8033 91.8917 10.2663C91.7337 9.00277 92.3026 8.68689 94.8941 8.62371C96.253 8.59212 97.4539 8.56053 97.612 8.56053C97.7384 8.52894 97.8332 8.27623 97.8332 7.96035C97.8332 7.64446 97.928 7.2654 98.0228 7.17063C98.3073 6.91792 100.361 0.916072 100.361 0.379064C100.361 0.0947661 98.9077 0 94.1988 0C88.9526 0 88.0361 0.0631774 88.0361 0.47383ZM5.86714 1.48467C5.5511 1.54785 4.79262 3.44317 3.7181 6.72839C2.8016 9.53978 2.04312 11.9721 2.07472 12.0985C2.07472 12.2564 3.43367 12.3196 5.07705 12.2564C8.17419 12.1616 9.1855 12.4775 8.49022 13.3304C8.3006 13.5515 8.04777 14.2465 7.92136 14.8467C7.79495 15.4469 7.60533 16.0786 7.47891 16.2682C7.00486 17.0579 6.56241 18.7953 6.78364 18.9532C6.94165 19.048 9.31191 19.1112 12.0614 19.0796L17.0864 19.048L17.6552 17.1842C18.0029 16.1734 18.3821 15.0362 18.5401 14.6887C18.6981 14.3413 18.951 13.6779 19.109 13.2041C19.425 12.3828 19.5514 12.3512 21.8901 12.2564L24.3236 12.1616L24.6712 11.056C24.8292 10.4559 25.082 9.79249 25.1768 9.63455C25.3033 9.44502 25.4929 8.81324 25.6193 8.21306C25.7457 7.61287 25.9353 6.94951 26.0617 6.79157C26.4726 6.19138 27.7683 1.86373 27.5787 1.6742C27.3575 1.48467 6.65722 1.29514 5.86714 1.48467ZM30.4546 1.48467C30.1386 1.57943 29.8542 2.08485 29.7277 2.87457C29.6013 3.53793 29.4117 4.16971 29.2537 4.26447C29.0957 4.35924 28.9061 4.99101 28.7796 5.68596C28.6532 6.38091 28.4636 7.01269 28.3056 7.10745C28.1792 7.20222 27.958 7.77082 27.8315 8.40259C27.7367 9.03436 27.5155 9.79249 27.3575 10.0768C27.1995 10.3611 26.5674 12.1301 25.9353 14.057C25.3033 15.9523 24.6396 17.7844 24.4816 18.1003C24.3236 18.4162 24.2287 18.7637 24.3236 18.89C24.3868 19.0164 29.4117 19.1112 35.448 19.1112H46.446L47.3309 16.5841C48.5002 13.2041 48.4686 12.3196 47.1413 10.9297L46.0983 9.79249H42.2427C38.9876 9.79249 38.3555 9.72931 38.1975 9.28707C38.1027 9.00277 38.1343 8.52894 38.3239 8.24465C38.5135 7.96035 38.7663 7.23381 38.8927 6.63362C39.0192 6.03344 39.2404 5.37008 39.3668 5.21213C39.4932 5.0226 39.7144 4.39083 39.8409 3.79064C39.9673 3.19046 40.2201 2.49551 40.4097 2.27438C40.6625 1.9585 40.6309 1.76897 40.3465 1.61102C39.9357 1.35831 31.4027 1.26355 30.4546 1.48467ZM105.734 1.51626C105.544 1.57943 105.418 1.89532 105.418 2.21121C105.418 2.52709 105.292 2.87457 105.134 2.96934C104.976 3.09569 104.754 3.72746 104.628 4.42242C104.502 5.11737 104.312 5.74914 104.154 5.84391C103.996 5.93867 103.806 6.57045 103.68 7.2654C103.553 7.96035 103.332 8.59212 103.174 8.71848C103.016 8.81324 102.89 9.16072 102.89 9.4766C102.89 10.5506 101.973 11.0876 100.235 11.056C99.3502 11.0245 98.4653 11.0245 98.2756 11.0245C98.086 11.056 97.6752 11.8773 97.3591 12.8566C97.0115 13.8674 96.6323 14.8151 96.5058 14.973C96.3794 15.1626 96.253 15.5732 96.253 15.9207C96.253 16.2998 96.0318 16.9947 95.779 17.5001C95.5261 17.974 95.3049 18.5741 95.3049 18.7637C95.3049 19.0796 98.2124 19.1427 107.883 19.0796C114.773 19.048 120.588 19.0164 120.777 18.9848C121.03 18.9532 121.093 17.7844 120.967 15.0678C120.904 12.9514 120.777 11.1508 120.714 11.0876C120.682 11.0244 118.913 11.0245 116.795 11.0245C113.667 11.0876 112.971 10.9929 112.813 10.6138C112.655 10.1716 113.603 6.4125 114.267 4.89625C114.615 4.13812 115.215 1.80055 115.12 1.70579C114.994 1.57943 106.05 1.42149 105.734 1.51626ZM53.4303 11.6246C52.9247 11.8773 52.261 12.3196 51.945 12.6355C51.3129 13.2041 49.7959 15.9523 49.7959 16.5209C49.7959 16.742 49.5747 17.3106 49.3219 17.816C49.0375 18.3214 48.911 18.7953 48.9742 18.89C49.1955 19.0796 63.1326 19.3007 63.7331 19.1112C64.0491 19.0164 64.3651 18.4478 64.4915 17.7844C64.5864 17.1842 64.8076 16.4261 64.9656 16.1418C65.3132 15.51 66.5458 11.7826 66.5458 11.3719C66.5458 11.1824 64.3019 11.056 60.4779 11.0876C55.6426 11.1192 54.1888 11.214 53.4303 11.6246ZM68.6 12.2248C68.4736 12.8882 68.284 13.5515 68.1575 13.7411C67.7151 14.3729 66.4826 18.6689 66.6722 18.8584C66.7986 18.9848 69.074 19.1112 71.7603 19.1427L76.6273 19.2059L76.8485 18.1951C76.9433 17.6581 77.1645 17.0579 77.2909 16.8999C77.4174 16.7104 77.6386 16.1102 77.765 15.5416C77.8598 14.973 78.1442 14.1201 78.3971 13.6463C78.6183 13.1725 78.9027 12.4144 78.9975 11.9089L79.1871 11.056H68.8212L68.6 12.2248ZM126.75 14.2781C125.549 16.0786 124.317 17.8476 123.969 18.2267C123.622 18.6373 123.369 18.9532 123.464 18.9848C123.527 19.0164 126.023 19.048 128.963 19.1112C134.936 19.2059 134.62 19.3007 136.073 16.8999C136.484 16.205 136.927 15.5732 137.021 15.4785C137.116 15.3837 137.559 14.7519 137.97 14.057C138.38 13.362 138.886 12.6355 139.107 12.4775C139.297 12.288 139.55 11.9089 139.645 11.593C139.834 11.0876 139.455 11.056 134.367 11.056H128.868L126.75 14.2781ZM5.70912 21.7014C5.48789 21.9225 5.17186 22.5543 5.07705 23.1229C4.95064 23.6915 4.72941 24.3549 4.57139 24.6392C4.44498 24.8919 4.00253 26.187 3.62329 27.4822C3.21245 28.7773 2.8016 29.9777 2.67519 30.1672C2.54877 30.3251 2.35915 30.9569 2.23274 31.5255C2.13793 32.0941 1.8535 32.947 1.60067 33.4208C1.37945 33.8947 1.09501 34.6528 1.0002 35.1266C0.747376 36.2954 1.15822 36.3586 6.81524 36.2638C11.1133 36.169 11.3977 36.1375 11.4926 35.5373C11.5558 35.1898 11.8086 34.4633 12.0614 33.8947C12.3142 33.3577 12.5039 32.6943 12.5039 32.41C12.5039 32.1257 12.6303 31.6519 12.8199 31.336C12.9779 31.0517 13.61 29.2195 14.2421 27.3242C14.9057 25.3973 15.6326 23.3756 15.8854 22.807C16.1383 22.2068 16.2647 21.6382 16.1383 21.5435C16.0118 21.4171 13.7364 21.3224 11.0185 21.2908C7.3525 21.2908 6.02515 21.3855 5.70912 21.7014ZM23.5967 21.4487C23.4387 21.5751 23.1858 22.0805 23.0594 22.5859C22.933 23.1229 22.7434 23.6599 22.617 23.8495C22.459 24.0074 22.2693 24.7024 22.1429 25.3657C22.0165 25.9975 21.7953 26.5977 21.6689 26.6924C21.5108 26.7872 21.3212 27.419 21.1948 28.1139C21.0684 28.8089 20.8788 29.4407 20.7208 29.5354C20.5627 29.6302 20.3731 30.262 20.2467 30.9569C20.1203 31.6519 19.8991 32.2836 19.7411 32.41C19.583 32.5048 19.4566 32.8206 19.4566 33.1049C19.4566 33.3892 19.2354 34.0526 18.9826 34.558C18.0661 36.327 18.0661 36.327 23.4071 36.327C27.7999 36.327 28.3372 36.2638 28.4952 35.7584C28.59 35.4741 28.8112 34.9371 28.9377 34.5896C29.0957 34.2421 29.5381 32.8838 29.9174 31.5887C30.3282 30.2935 30.7391 29.0616 30.8655 28.9036C30.9919 28.7141 31.1815 28.0823 31.3079 27.4822C31.4343 26.882 31.6556 26.2186 31.782 26.0607C31.9084 25.8711 32.1296 25.2709 32.256 24.7023C32.3508 24.1338 32.6669 23.2493 32.9513 22.7123C33.2041 22.1753 33.3305 21.6698 33.2041 21.5435C32.9513 21.2908 24.0075 21.196 23.5967 21.4487ZM36.1116 21.4171C35.8272 21.4803 35.5744 21.733 35.5744 21.9541C35.5744 22.4911 32.5089 31.8098 32.098 32.5679C31.94 32.8522 31.7188 33.6104 31.624 34.2421C31.4975 34.8739 31.2447 35.4741 31.0867 35.5689C30.2966 36.0743 31.9716 36.327 36.1432 36.327C40.1569 36.327 40.6625 36.2638 40.8206 35.7584C40.9154 35.4741 41.1366 34.9371 41.263 34.5896C41.421 34.2421 41.8635 32.947 42.2111 31.7466C42.5904 30.5147 43.0328 29.2511 43.1592 28.9036C43.3172 28.5562 43.7597 27.261 44.1389 26.0607C44.5182 24.8287 45.0238 23.3756 45.2766 22.807C45.5295 22.2068 45.6559 21.6382 45.5295 21.5435C45.3082 21.3224 37.123 21.2276 36.1116 21.4171ZM48.2158 21.4803C48.0577 21.5751 47.8365 22.0805 47.7101 22.5859C47.5837 23.1229 47.3941 23.6599 47.2677 23.8495C47.1096 24.0074 46.92 24.7024 46.7936 25.3657C46.6672 25.9975 46.446 26.6293 46.288 26.724C46.1299 26.8188 46.0035 27.1347 46.0035 27.419C45.9719 27.7033 45.7191 28.5246 45.3715 29.2195C45.0238 29.9145 44.771 30.7042 44.7394 30.9885C44.7394 31.2728 44.5182 31.9362 44.2653 32.41C44.0125 32.9154 43.7913 33.5788 43.7913 33.8631C43.7913 34.1474 43.6649 34.4948 43.4752 34.5896C43.3172 34.6844 43.1592 35.1266 43.1592 35.5689V36.327H47.9945C50.6176 36.327 52.9563 36.2006 53.1775 36.0743C53.5567 35.8216 58.3921 21.733 58.1709 21.5119C57.9812 21.3224 48.5318 21.2908 48.2158 21.4803ZM65.4713 21.7962C65.2184 22.0489 64.934 22.7754 64.8076 23.3756C64.6812 23.9758 64.4599 24.6708 64.3019 24.9551C64.1755 25.2078 63.7647 26.345 63.3854 27.4822C63.0378 28.6193 62.5953 29.8197 62.4689 30.1672C62.3109 30.5147 61.8369 31.9362 61.3944 33.3261C60.7939 35.1898 60.6991 35.9163 60.952 36.0743C61.3944 36.3586 69.7377 36.4218 70.4646 36.1375C70.7174 36.0427 71.0335 35.4741 71.1599 34.8739C71.2547 34.2737 71.4759 33.7051 71.6339 33.6104C71.7919 33.5156 71.9184 33.1681 71.9184 32.7891C71.9184 32.4416 72.108 31.715 72.3608 31.178C72.6136 30.6094 73.3405 28.5246 74.0042 26.5345C74.6363 24.5444 75.2999 22.7754 75.4579 22.6175C75.5844 22.428 75.7108 22.0805 75.7108 21.7962C75.7108 21.3539 75.0787 21.2908 70.8122 21.2908C66.767 21.2908 65.8189 21.3855 65.4713 21.7962ZM78.0178 21.7646C77.923 22.0489 77.7334 22.5543 77.607 22.9018C77.449 23.2493 76.8169 25.0814 76.1848 27.0083C75.5844 28.9036 74.9207 30.7674 74.7627 31.1149C74.6047 31.4623 74.3834 32.0941 74.2886 32.5363C74.1622 32.9786 73.8778 33.7999 73.5933 34.3685C72.7401 36.2954 72.9297 36.3586 78.4603 36.2638L83.4536 36.169L85.0022 31.4307C85.8239 28.8089 86.6456 26.4081 86.772 26.0607C86.93 25.7132 87.1512 25.0814 87.246 24.6392C87.3725 24.1969 87.6569 23.3756 87.9413 22.807C88.1941 22.2068 88.3206 21.6382 88.1941 21.5435C88.0993 21.4171 85.7923 21.3224 83.0744 21.3224C78.9027 21.2908 78.1442 21.354 78.0178 21.7646ZM98.6865 21.4171C98.4021 21.4803 98.1176 21.9541 97.9912 22.5227C97.8964 23.0913 97.6752 23.8179 97.5172 24.1653C97.3591 24.5128 96.6955 26.345 96.095 28.2719C95.4629 30.1672 94.8309 31.9677 94.7045 32.2205C94.5464 32.5048 94.3252 33.1997 94.1988 33.7999C94.0724 34.4001 93.8196 35.095 93.6299 35.3161C92.9347 36.169 93.946 36.3586 99.1289 36.2638C104.027 36.169 104.312 36.1375 104.407 35.5373C104.47 35.1898 104.723 34.4633 104.976 33.8947C105.228 33.3577 105.418 32.6311 105.418 32.2836C105.418 31.9046 105.576 31.5255 105.734 31.4307C105.924 31.336 106.05 30.9885 106.05 30.7042C106.05 30.4199 106.24 29.7881 106.493 29.3143C106.745 28.8405 107.03 27.9876 107.156 27.419C107.283 26.8504 107.504 26.2186 107.63 26.0607C107.757 25.8711 107.978 25.2709 108.104 24.7023C108.199 24.1338 108.515 23.2493 108.8 22.7123C109.052 22.1753 109.179 21.6698 109.052 21.5435C108.863 21.3224 99.7294 21.2276 98.6865 21.4171ZM113.129 21.6382C113.066 21.7962 113.161 23.0281 113.319 24.3233C113.509 25.6184 113.793 27.9876 113.983 29.5986L114.33 32.5048L113.129 34.4948C112.466 35.6004 111.802 36.5165 111.676 36.5797C111.549 36.6429 111.423 36.8008 111.423 36.9588C111.423 37.2115 109.558 40.1808 108.989 40.9073C108.831 41.0653 108.357 41.7918 107.946 42.4868C107.535 43.1817 107.061 43.8767 106.903 44.0662C106.303 44.8243 104.47 47.7937 104.47 48.0464C104.47 48.2043 106.682 48.3307 109.558 48.3307C115.089 48.3307 114.867 48.3939 116.163 46.2774C116.574 45.5825 116.985 44.9507 117.08 44.8559C117.206 44.7612 118.249 43.2133 119.482 41.3812C120.682 39.549 121.757 38.0012 121.852 37.9064C121.947 37.8117 124.222 34.4633 126.877 30.4831C129.531 26.4713 131.997 22.9018 132.376 22.5227C132.723 22.1121 132.913 21.7014 132.787 21.5751C132.407 21.196 113.256 21.2592 113.129 21.6382Z" fill="#3570B5"/>
</g>
<defs>
<clipPath id="clip0_389_23310">
<rect width="140.582" height="48.3939" fill="white"/>
</clipPath>
</defs>
</svg>
