<svg width="18" height="18" viewBox="0 0 18 18" fill="none" xmlns="http://www.w3.org/2000/svg">
<path d="M15.8395 5.06349H13.1728V3.41269C13.1728 2.64236 12.5459 2.01587 11.776 2.01587H6.69665C5.9268 2.01587 5.29982 2.64236 5.29982 3.41269V5.06349H2.63315C1.86331 5.06349 1.23633 5.68998 1.23633 6.46031V14.5873C1.23633 15.3576 1.86331 15.9841 2.63315 15.9841H15.8395C16.6093 15.9841 17.2363 15.3576 17.2363 14.5873V6.46031C17.2363 5.68998 16.6093 5.06349 15.8395 5.06349ZM13.4268 5.82539V15.2222H5.04585V5.82539H13.4268ZM6.06173 3.41269C6.06173 3.0625 6.34645 2.77777 6.69665 2.77777H11.776C12.1262 2.77777 12.4109 3.0625 12.4109 3.41269V5.06349H6.06173V3.41269ZM1.99823 14.5873V6.46031C1.99823 6.11012 2.28296 5.82539 2.63315 5.82539H4.28395V15.2222H2.63315C2.28296 15.2222 1.99823 14.9375 1.99823 14.5873ZM16.4744 14.5873C16.4744 14.9375 16.1897 15.2222 15.8395 15.2222H14.1887V5.82539H15.8395C16.1897 5.82539 16.4744 6.11012 16.4744 6.46031V14.5873Z" fill="black"/>
</svg>
