<svg width="20" height="20" viewBox="0 0 20 20" fill="none" xmlns="http://www.w3.org/2000/svg">
<g clip-path="url(#clip0_1229_6622)">
<path fill-rule="evenodd" clip-rule="evenodd" d="M4.1084 14.1413C4.1084 12.6347 7.53293 11.4144 11.7585 11.4144C15.9841 11.4144 19.4098 12.6347 19.4098 14.1413V16.6467C19.4098 18.1533 15.9841 19.3736 11.7585 19.3736C7.53293 19.3736 4.1084 18.1533 4.1084 16.6467C4.1084 15.8116 4.1084 14.9765 4.1084 14.1413Z" fill="#FE9923"/>
<path fill-rule="evenodd" clip-rule="evenodd" d="M11.7585 11.4144C15.9841 11.4144 19.4098 12.6347 19.4098 14.1413C19.4098 15.6468 15.9841 16.8683 11.7585 16.8683C7.53293 16.8683 4.1084 15.6469 4.1084 14.1413C4.1084 12.6347 7.53293 11.4144 11.7585 11.4144Z" fill="#FECD3D"/>
<path fill-rule="evenodd" clip-rule="evenodd" d="M11.7585 11.4144C13.0446 11.4144 14.257 11.5269 15.3205 11.7269V11.9076C15.3205 13.4142 11.8948 14.6345 7.67039 14.6345C6.39102 14.6345 5.18551 14.5231 4.12543 14.3254C4.11406 14.2641 4.1084 14.2027 4.1084 14.1413C4.10836 12.6347 7.53289 11.4144 11.7585 11.4144Z" fill="#CEA732"/>
<path fill-rule="evenodd" clip-rule="evenodd" d="M11.7586 12.6884C15.1206 12.6884 17.8452 13.3394 17.8452 14.1416C17.8452 14.9437 15.1206 15.5936 11.7586 15.5936C8.39766 15.5936 5.67188 14.9437 5.67188 14.1416C5.67188 13.3394 8.39762 12.6884 11.7586 12.6884Z" fill="#FEA832"/>
<path fill-rule="evenodd" clip-rule="evenodd" d="M11.7586 12.6884C12.872 12.6884 13.9162 12.76 14.815 12.8849C13.7117 13.9086 10.9291 14.6347 7.67047 14.6347C7.07281 14.6347 6.49223 14.6108 5.93434 14.5643C5.76391 14.4302 5.67188 14.2882 5.67188 14.1416C5.67188 13.3394 8.39762 12.6884 11.7586 12.6884Z" fill="#CE8829"/>
<path d="M17.3413 17.1773V18.5112C17.5765 18.4214 17.7958 18.3271 17.9958 18.226V17.1761L17.3413 17.1773ZM15.6313 18.9986C15.42 19.0429 15.2018 19.0839 14.978 19.1214V17.85L15.6313 17.8511V18.9986ZM13.268 19.3202C13.0533 19.3361 12.8351 19.3474 12.6147 19.3565V18.1431L13.268 18.1453V19.3202ZM10.9047 19.3565C10.6831 19.3474 10.465 19.3361 10.2502 19.3202V18.1442H10.9047V19.3565ZM8.54023 19.1213C8.31641 19.0838 8.09824 19.0429 7.88691 18.9986V17.8499L8.54023 17.851V19.1213ZM6.17691 18.5112C5.94172 18.4215 5.72242 18.3272 5.52246 18.226V17.1773L6.17691 17.1762V18.5112Z" fill="#C85929"/>
<path fill-rule="evenodd" clip-rule="evenodd" d="M0.0195312 8.74807C0.0195312 7.24146 3.44519 6.02002 7.67078 6.02002C11.8952 6.02002 15.3209 7.24146 15.3209 8.74807V11.2534C15.3209 12.7589 11.8952 13.9803 7.67078 13.9803C3.44519 13.9803 0.0195312 12.7589 0.0195312 11.2534C0.0195312 10.4183 0.0195312 9.58318 0.0195312 8.74807Z" fill="#FE9923"/>
<path fill-rule="evenodd" clip-rule="evenodd" d="M7.67078 6.02002C11.8952 6.02002 15.3209 7.24146 15.3209 8.74807C15.3209 10.2535 11.8952 11.4749 7.67078 11.4749C3.44519 11.475 0.0195312 10.2536 0.0195312 8.74807C0.0195312 7.24146 3.44519 6.02002 7.67078 6.02002Z" fill="#FECD3D"/>
<path fill-rule="evenodd" clip-rule="evenodd" d="M7.67113 6.02002C11.8955 6.02002 15.3213 7.24146 15.3213 8.74807C15.3213 8.89576 15.2883 9.04119 15.2236 9.18322C14.4157 9.27525 13.5545 9.32412 12.6603 9.32412C7.99613 9.32412 4.21484 7.97658 4.21484 6.31432C5.25215 6.12682 6.42695 6.02002 7.67113 6.02002Z" fill="#CEA732"/>
<path fill-rule="evenodd" clip-rule="evenodd" d="M7.67066 7.29468C11.0316 7.29468 13.7573 7.94573 13.7573 8.74788C13.7573 9.55003 11.0316 10.2 7.67066 10.2C4.30863 10.2 1.58398 9.55003 1.58398 8.74788C1.58398 7.94573 4.30859 7.29468 7.67066 7.29468Z" fill="#FEA832"/>
<path fill-rule="evenodd" clip-rule="evenodd" d="M7.67098 7.29468C11.0319 7.29468 13.7577 7.94573 13.7577 8.74788C13.7577 8.94897 13.585 9.14214 13.2725 9.31597C13.0703 9.32167 12.8657 9.32394 12.6601 9.32394C9.13441 9.32394 6.11437 8.55472 4.84863 7.46054C5.69281 7.35487 6.6518 7.29468 7.67098 7.29468Z" fill="#CE8829"/>
<path d="M13.2526 11.7838V13.1178C13.4878 13.028 13.7071 12.9326 13.9071 12.8326V11.7827L13.2526 11.7838ZM11.5426 13.6052C11.3313 13.6495 11.1131 13.6904 10.8893 13.7279V12.4565L11.5426 12.4576V13.6052ZM9.17816 13.9267C8.96344 13.9426 8.74641 13.954 8.52484 13.9631V12.7496L9.17816 12.7508V13.9267ZM6.81484 13.9631C6.59441 13.954 6.37625 13.9426 6.16039 13.9267V12.7508L6.81484 12.7496V13.9631ZM4.45039 13.7279C4.22656 13.6904 4.00953 13.6495 3.79707 13.6052V12.4565L4.45039 12.4576V13.7279ZM2.0882 13.1178C1.85188 13.028 1.63371 12.9326 1.43262 12.8326V11.7838L2.0882 11.7827V13.1178Z" fill="#C85929"/>
<path d="M19.3946 9.17664V9.76406H19.9809V10.3253H19.3946V10.9116H18.8334V10.3253H18.2471V9.76406H18.8334V9.17664H19.3946Z" fill="#FEA832"/>
<path d="M1.80008 15.1346V15.7209H2.38637V16.2822H1.80008V16.8685H1.23879V16.2822H0.651367V15.7209H1.23879V15.1346H1.80008Z" fill="#FEA832"/>
<path d="M1.80008 2.86938V3.45567H2.38637V4.01696H1.80008V4.60438H1.23879V4.01696H0.651367V3.45567H1.23879V2.86938H1.80008Z" fill="#FEA832"/>
<path fill-rule="evenodd" clip-rule="evenodd" d="M4.1084 3.35314C4.1084 1.84767 7.53293 0.626221 11.7585 0.626221C15.9841 0.626221 19.4098 1.84763 19.4098 3.35314V5.85962C19.4098 7.36509 15.9841 8.58653 11.7585 8.58653C7.53293 8.58653 4.1084 7.36513 4.1084 5.85962C4.1084 5.0245 4.1084 4.18825 4.1084 3.35314Z" fill="#FE9923"/>
<path fill-rule="evenodd" clip-rule="evenodd" d="M11.7585 0.626221C15.9841 0.626221 19.4098 1.84763 19.4098 3.35314C19.4098 4.85974 15.9841 6.08118 11.7585 6.08118C7.53293 6.08118 4.1084 4.85974 4.1084 3.35314C4.1084 1.84767 7.53293 0.626221 11.7585 0.626221Z" fill="#FECD3D"/>
<path fill-rule="evenodd" clip-rule="evenodd" d="M11.7586 1.90137C15.1206 1.90137 17.8452 2.55129 17.8452 3.35344C17.8452 4.15676 15.1206 4.80664 11.7586 4.80664C8.39766 4.80664 5.67188 4.15672 5.67188 3.35344C5.67188 2.55129 8.39762 1.90137 11.7586 1.90137Z" fill="#FEA832"/>
<path d="M17.3413 6.38993V7.72383C17.5765 7.63407 17.7958 7.53864 17.9958 7.43864V6.38879L17.3413 6.38993ZM15.6313 8.21125C15.42 8.25555 15.2018 8.29649 14.978 8.33282V7.06254L15.6313 7.06368V8.21125ZM13.268 8.53282C13.0533 8.54758 12.8351 8.56008 12.6147 8.56918V7.35571L13.268 7.35684V8.53282ZM10.9047 8.56918C10.6831 8.56008 10.465 8.54758 10.2502 8.53282V7.35684L10.9047 7.35571V8.56918ZM8.54023 8.33282C8.31641 8.29645 8.09824 8.25555 7.88691 8.21125V7.06254L8.54023 7.06368V8.33282ZM6.17691 7.72383C5.94172 7.63407 5.72242 7.53864 5.52246 7.43864V6.38993L6.17691 6.38879V7.72383Z" fill="#C85929"/>
</g>
<defs>
<clipPath id="clip0_1229_6622">
<rect width="20" height="20" fill="white"/>
</clipPath>
</defs>
</svg>
