<svg width="22" height="22" viewBox="0 0 22 22" fill="none" xmlns="http://www.w3.org/2000/svg">
<g clip-path="url(#clip0_1229_6611)">
<path d="M20.5374 11.2851C20.4489 11.1039 20.4489 10.8962 20.5374 10.7152L21.3579 9.0366C21.8148 8.10199 21.4528 6.98802 20.5339 6.50046L18.8834 5.62476C18.7054 5.53031 18.5833 5.36222 18.5485 5.16375L18.2257 3.32345C18.0459 2.29882 17.0981 1.61029 16.0683 1.75599L14.2184 2.01767C14.0187 2.04586 13.8213 1.98166 13.6764 1.84154L12.3336 0.542516C11.5859 -0.180817 10.4146 -0.18086 9.66694 0.542516L8.32408 1.84167C8.17919 1.98184 7.98175 2.0459 7.78212 2.0178L5.93219 1.75612C4.90202 1.61033 3.95456 2.29894 3.77482 3.32357L3.45204 5.16379C3.41719 5.36231 3.29512 5.53036 3.1171 5.62485L1.46668 6.50055C0.54775 6.98807 0.185782 8.10211 0.642625 9.03673L1.46311 10.7153C1.55163 10.8964 1.55163 11.1041 1.46311 11.2851L0.642582 12.9637C0.185739 13.8983 0.547707 15.0122 1.46663 15.4998L3.11706 16.3755C3.29512 16.47 3.41719 16.638 3.45204 16.8365L3.77482 18.6768C3.93845 19.6096 4.73826 20.2637 5.65749 20.2637C5.74803 20.2637 5.83989 20.2573 5.93223 20.2442L7.78216 19.9826C7.98167 19.9542 8.17923 20.0186 8.32412 20.1587L9.66694 21.4577C10.0408 21.8194 10.5205 22.0002 11.0003 22.0002C11.4799 22.0001 11.9598 21.8193 12.3336 21.4577L13.6764 20.1587C13.8213 20.0186 14.0188 19.9545 14.2184 19.9826L16.0683 20.2442C17.0986 20.39 18.0459 19.7014 18.2257 18.6768L18.5485 16.8366C18.5834 16.638 18.7054 16.47 18.8834 16.3755L20.5339 15.4998C21.4528 15.0123 21.8148 13.8982 21.3579 12.9636L20.5374 11.2851ZM8.46248 5.29021C9.74518 5.29021 10.7888 6.33378 10.7888 7.61648C10.7888 8.89918 9.74518 9.94276 8.46248 9.94276C7.17978 9.94276 6.13621 8.89918 6.13621 7.61648C6.13621 6.33378 7.17978 5.29021 8.46248 5.29021ZM7.26177 15.6358C7.13789 15.7596 6.97551 15.8216 6.81318 15.8216C6.65084 15.8216 6.48842 15.7597 6.36458 15.6358C6.11683 15.388 6.11683 14.9863 6.36458 14.7385L14.7387 6.36442C14.9864 6.11666 15.3882 6.11666 15.6359 6.36442C15.8837 6.61218 15.8837 7.01389 15.6359 7.26165L7.26177 15.6358ZM13.5379 16.7101C12.2552 16.7101 11.2117 15.6665 11.2117 14.3838C11.2117 13.1011 12.2552 12.0575 13.5379 12.0575C14.8206 12.0575 15.8642 13.1011 15.8642 14.3838C15.8642 15.6665 14.8206 16.7101 13.5379 16.7101Z" fill="white"/>
<path d="M13.5379 13.3264C12.9548 13.3264 12.4805 13.8007 12.4805 14.3838C12.4805 14.9668 12.9548 15.4412 13.5379 15.4412C14.1209 15.4412 14.5953 14.9668 14.5953 14.3838C14.5953 13.8007 14.1209 13.3264 13.5379 13.3264Z" fill="white"/>
<path d="M8.46265 6.55884C7.8796 6.55884 7.40527 7.03317 7.40527 7.61621C7.40527 8.19925 7.8796 8.67362 8.46265 8.67362C9.04569 8.67362 9.52006 8.19929 9.52006 7.61621C9.52002 7.03321 9.04569 6.55884 8.46265 6.55884Z" fill="white"/>
</g>
<defs>
<clipPath id="clip0_1229_6611">
<rect width="22.0001" height="22.0001" fill="white"/>
</clipPath>
</defs>
</svg>
