<svg width="22" height="22" viewBox="0 0 22 22" fill="none" xmlns="http://www.w3.org/2000/svg">
<g clip-path="url(#clip0_1229_6543)">
<path d="M20.5372 11.2851C20.4486 11.1039 20.4486 10.8962 20.5372 10.7152L21.3577 9.0366C21.8145 8.10199 21.4526 6.98802 20.5336 6.50046L18.8832 5.62476C18.7051 5.53031 18.5831 5.36222 18.5482 5.16375L18.2254 3.32345C18.0457 2.29882 17.0979 1.61029 16.0681 1.75599L14.2181 2.01767C14.0185 2.04586 13.821 1.98166 13.6762 1.84154L12.3334 0.542516C11.5857 -0.180817 10.4143 -0.18086 9.66669 0.542516L8.32384 1.84167C8.17895 1.98184 7.98151 2.0459 7.78187 2.0178L5.93195 1.75612C4.90177 1.61033 3.95432 2.29894 3.77458 3.32357L3.4518 5.16379C3.41695 5.36231 3.29488 5.53036 3.11686 5.62485L1.46643 6.50055C0.547506 6.98807 0.185538 8.10211 0.642381 9.03673L1.46287 10.7153C1.55138 10.8964 1.55138 11.1041 1.46287 11.2851L0.642338 12.9637C0.185495 13.8983 0.547463 15.0122 1.46639 15.4998L3.11681 16.3755C3.29488 16.47 3.41695 16.638 3.4518 16.8365L3.77458 18.6768C3.9382 19.6096 4.73802 20.2637 5.65725 20.2637C5.74778 20.2637 5.83965 20.2573 5.93199 20.2442L7.78192 19.9826C7.98142 19.9542 8.17899 20.0186 8.32388 20.1587L9.66669 21.4577C10.0406 21.8194 10.5202 22.0002 11 22.0002C11.4797 22.0001 11.9596 21.8193 12.3333 21.4577L13.6762 20.1587C13.8211 20.0186 14.0186 19.9545 14.2181 19.9826L16.0681 20.2442C17.0984 20.39 18.0457 19.7014 18.2254 18.6768L18.5483 16.8366C18.5831 16.638 18.7052 16.47 18.8832 16.3755L20.5336 15.4998C21.4526 15.0123 21.8145 13.8982 21.3577 12.9636L20.5372 11.2851ZM8.46224 5.29021C9.74494 5.29021 10.7885 6.33378 10.7885 7.61648C10.7885 8.89918 9.74494 9.94276 8.46224 9.94276C7.17954 9.94276 6.13596 8.89918 6.13596 7.61648C6.13596 6.33378 7.17954 5.29021 8.46224 5.29021ZM7.26152 15.6358C7.13765 15.7596 6.97527 15.8216 6.81293 15.8216C6.6506 15.8216 6.48818 15.7597 6.36434 15.6358C6.11658 15.388 6.11658 14.9863 6.36434 14.7385L14.7385 6.36442C14.9862 6.11666 15.3879 6.11666 15.6357 6.36442C15.8834 6.61218 15.8834 7.01389 15.6357 7.26165L7.26152 15.6358ZM13.5377 16.7101C12.255 16.7101 11.2114 15.6665 11.2114 14.3838C11.2114 13.1011 12.255 12.0575 13.5377 12.0575C14.8204 12.0575 15.864 13.1011 15.864 14.3838C15.864 15.6665 14.8204 16.7101 13.5377 16.7101Z" fill="#02BC7D"/>
<path d="M13.5378 13.3262C12.9547 13.3262 12.4803 13.8005 12.4803 14.3835C12.4803 14.9666 12.9547 15.4409 13.5378 15.4409C14.1208 15.4409 14.5951 14.9666 14.5951 14.3835C14.5951 13.8005 14.1208 13.3262 13.5378 13.3262Z" fill="#02BC7D"/>
<path d="M8.46228 6.55908C7.87924 6.55908 7.40491 7.03341 7.40491 7.61645C7.40491 8.1995 7.87924 8.67387 8.46228 8.67387C9.04532 8.67387 9.51969 8.19954 9.51969 7.61645C9.51965 7.03346 9.04532 6.55908 8.46228 6.55908Z" fill="#02BC7D"/>
</g>
<defs>
<clipPath id="clip0_1229_6543">
<rect width="22.0001" height="22.0001" fill="white"/>
</clipPath>
</defs>
</svg>
