<svg width="19" height="19" viewBox="0 0 19 19" fill="none" xmlns="http://www.w3.org/2000/svg">
<path d="M0.679688 2.28005C0.679688 1.39605 1.39569 0.680054 2.27969 0.680054" stroke="#F5821F" stroke-width="1.36" stroke-linecap="round" stroke-linejoin="round"/>
<path d="M18.2797 2.28005C18.2797 1.39605 17.5637 0.680054 16.6797 0.680054" stroke="#F5821F" stroke-width="1.36" stroke-linecap="round" stroke-linejoin="round"/>
<path d="M18.2797 16.6801C18.2797 17.5641 17.5637 18.2801 16.6797 18.2801" stroke="#F5821F" stroke-width="1.36" stroke-linecap="round" stroke-linejoin="round"/>
<path d="M0.679688 16.6801C0.679688 17.5641 1.39569 18.2801 2.27969 18.2801" stroke="#F5821F" stroke-width="1.36" stroke-linecap="round" stroke-linejoin="round"/>
<path d="M2.2793 0.680054H16.6793" stroke="#F5821F" stroke-width="1.36" stroke-linecap="round" stroke-linejoin="round"/>
<path d="M18.2793 2.28003V16.68" stroke="#F5821F" stroke-width="1.36" stroke-linecap="round" stroke-linejoin="round"/>
<path d="M7.8793 18.28H2.2793" stroke="#F5821F" stroke-width="1.36" stroke-linecap="round" stroke-linejoin="round"/>
<path d="M0.679688 16.68V2.28003" stroke="#F5821F" stroke-width="1.36" stroke-linecap="round" stroke-linejoin="round"/>
<path d="M7.08008 3.88V7.88" stroke="#F5821F" stroke-width="1.36" stroke-linecap="round" stroke-linejoin="round"/>
<path d="M11.8799 3.88V7.88" stroke="#F5821F" stroke-width="1.36" stroke-linecap="round" stroke-linejoin="round"/>
<path d="M5.47949 7.88H13.4795" stroke="#F5821F" stroke-width="1.36" stroke-linecap="round" stroke-linejoin="round"/>
<path d="M5.47949 11.88V7.88" stroke="#F5821F" stroke-width="1.36" stroke-linecap="round" stroke-linejoin="round"/>
<path d="M13.4795 11.88V7.88" stroke="#F5821F" stroke-width="1.36" stroke-linecap="round" stroke-linejoin="round"/>
<path d="M5.47949 11.88C5.47949 12.764 6.19549 13.48 7.07949 13.48" stroke="#F5821F" stroke-width="1.36" stroke-linecap="round" stroke-linejoin="round"/>
<path d="M13.4799 11.88C13.4799 12.764 12.7639 13.48 11.8799 13.48" stroke="#F5821F" stroke-width="1.36" stroke-linecap="round" stroke-linejoin="round"/>
<path d="M11.8801 13.48H7.08008" stroke="#F5821F" stroke-width="1.36" stroke-linecap="round" stroke-linejoin="round"/>
<path d="M9.47949 16.68V13.48" stroke="#F5821F" stroke-width="1.36" stroke-linecap="round" stroke-linejoin="round"/>
<path d="M9.47988 16.6801C9.47988 17.5641 8.76388 18.2801 7.87988 18.2801" stroke="#F5821F" stroke-width="1.36" stroke-linecap="round" stroke-linejoin="round"/>
<path d="M16.6799 18.28H11.8799" stroke="#F5821F" stroke-width="1.36" stroke-linecap="round" stroke-linejoin="round"/>
</svg>
