<svg width="18" height="18" viewBox="0 0 18 18" fill="none" xmlns="http://www.w3.org/2000/svg">
<path fill-rule="evenodd" clip-rule="evenodd" d="M14.9534 3.97668C15.2616 3.97668 15.5115 4.22657 15.5115 4.53482V8.99994C15.5115 9.30818 15.2616 9.55808 14.9534 9.55808H3.04642C2.73817 9.55808 2.48828 9.30818 2.48828 8.99994C2.48828 8.6917 2.73817 8.4418 3.04642 8.4418H14.3953V4.53482C14.3953 4.22657 14.6452 3.97668 14.9534 3.97668Z" fill="black"/>
<path fill-rule="evenodd" clip-rule="evenodd" d="M8.99955 3.97668C9.30779 3.97668 9.55769 4.22657 9.55769 4.53482V13.4651C9.55769 13.7733 9.30779 14.0232 8.99955 14.0232C8.6913 14.0232 8.44141 13.7733 8.44141 13.4651V4.53482C8.44141 4.22657 8.6913 3.97668 8.99955 3.97668Z" fill="black"/>
<path fill-rule="evenodd" clip-rule="evenodd" d="M3.04642 3.97668C3.35467 3.97668 3.60456 4.22657 3.60456 4.53482V13.4651C3.60456 13.7733 3.35467 14.0232 3.04642 14.0232C2.73817 14.0232 2.48828 13.7733 2.48828 13.4651V4.53482C2.48828 4.22657 2.73817 3.97668 3.04642 3.97668Z" fill="black"/>
<path fill-rule="evenodd" clip-rule="evenodd" d="M14.9537 2.11628C14.44 2.11628 14.0235 2.53276 14.0235 3.04651C14.0235 3.56025 14.44 3.97674 14.9537 3.97674C15.4674 3.97674 15.884 3.56025 15.884 3.04651C15.884 2.53276 15.4674 2.11628 14.9537 2.11628ZM12.9072 3.04651C12.9072 1.91625 13.8235 1 14.9537 1C16.084 1 17.0002 1.91625 17.0002 3.04651C17.0002 4.17675 16.084 5.09302 14.9537 5.09302C13.8235 5.09302 12.9072 4.17675 12.9072 3.04651Z" fill="black"/>
<path fill-rule="evenodd" clip-rule="evenodd" d="M8.99964 2.11628C8.48592 2.11628 8.0694 2.53276 8.0694 3.04651C8.0694 3.56025 8.48592 3.97674 8.99964 3.97674C9.51335 3.97674 9.92987 3.56025 9.92987 3.04651C9.92987 2.53276 9.51335 2.11628 8.99964 2.11628ZM6.95312 3.04651C6.95312 1.91625 7.86937 1 8.99964 1C10.1299 1 11.0461 1.91625 11.0461 3.04651C11.0461 4.17675 10.1299 5.09302 8.99964 5.09302C7.86937 5.09302 6.95312 4.17675 6.95312 3.04651Z" fill="black"/>
<path fill-rule="evenodd" clip-rule="evenodd" d="M3.04651 2.11628C2.53276 2.11628 2.11628 2.53276 2.11628 3.04651C2.11628 3.56025 2.53276 3.97674 3.04651 3.97674C3.56025 3.97674 3.97674 3.56025 3.97674 3.04651C3.97674 2.53276 3.56025 2.11628 3.04651 2.11628ZM1 3.04651C1 1.91626 1.91626 1 3.04651 1C4.17675 1 5.09302 1.91625 5.09302 3.04651C5.09302 4.17675 4.17675 5.09302 3.04651 5.09302C1.91625 5.09302 1 4.17675 1 3.04651Z" fill="black"/>
<path fill-rule="evenodd" clip-rule="evenodd" d="M8.99964 14.0231C8.48592 14.0231 8.0694 14.4397 8.0694 14.9534C8.0694 15.4671 8.48592 15.8836 8.99964 15.8836C9.51335 15.8836 9.92987 15.4671 9.92987 14.9534C9.92987 14.4397 9.51335 14.0231 8.99964 14.0231ZM6.95312 14.9534C6.95312 13.8231 7.86937 12.9069 8.99964 12.9069C10.1299 12.9069 11.0461 13.8231 11.0461 14.9534C11.0461 16.0836 10.1299 16.9999 8.99964 16.9999C7.86937 16.9999 6.95312 16.0836 6.95312 14.9534Z" fill="black"/>
<path fill-rule="evenodd" clip-rule="evenodd" d="M3.04651 14.0231C2.53276 14.0231 2.11628 14.4397 2.11628 14.9534C2.11628 15.4671 2.53276 15.8836 3.04651 15.8836C3.56025 15.8836 3.97674 15.4671 3.97674 14.9534C3.97674 14.4397 3.56025 14.0231 3.04651 14.0231ZM1 14.9534C1 13.8231 1.91625 12.9069 3.04651 12.9069C4.17675 12.9069 5.09302 13.8231 5.09302 14.9534C5.09302 16.0836 4.17675 16.9999 3.04651 16.9999C1.91625 16.9999 1 16.0836 1 14.9534Z" fill="black"/>
<path fill-rule="evenodd" clip-rule="evenodd" d="M14.9537 14.0231C14.44 14.0231 14.0235 14.4396 14.0235 14.9534C14.0235 15.4672 14.44 15.8836 14.9537 15.8836C15.4675 15.8836 15.884 15.4672 15.884 14.9534C15.884 14.4396 15.4675 14.0231 14.9537 14.0231ZM12.9072 14.9534C12.9072 13.8231 13.8235 12.9069 14.9537 12.9069C16.084 12.9069 17.0002 13.8231 17.0002 14.9534C17.0002 16.0836 16.084 16.9999 14.9537 16.9999C13.8235 16.9999 12.9072 16.0836 12.9072 14.9534Z" fill="black"/>
</svg>
