<svg width="24" height="24" viewBox="0 0 24 24" fill="none" xmlns="http://www.w3.org/2000/svg">
<g clip-path="url(#clip0_1391_7925)">
<path d="M21.5215 1.7461H16.0283L15.598 0.89007C15.4121 0.516805 15.0308 0.28093 14.6138 0.281258H9.38161C8.96536 0.279664 8.58483 0.516149 8.40202 0.89007L7.9717 1.7461H2.47852C2.07403 1.7461 1.74609 2.07404 1.74609 2.47852V3.94337C1.74609 4.34785 2.07403 4.67579 2.47852 4.67579H21.5215C21.926 4.67579 22.2539 4.34785 22.2539 3.94337V2.47852C22.2539 2.07404 21.926 1.7461 21.5215 1.7461Z" fill="#DC2626"/>
<path d="M4.18139 21.6588C4.25391 22.8166 5.214 23.7186 6.37406 23.7188H17.6259C18.786 23.7186 19.7461 22.8166 19.8186 21.6588L20.7891 6.14062H3.21094L4.18139 21.6588Z" fill="#DC2626"/>
</g>
<defs>
<clipPath id="clip0_1391_7925">
<rect width="24" height="24" fill="white"/>
</clipPath>
</defs>
</svg>
