<svg width="26" height="26" viewBox="0 0 26 26" fill="none" xmlns="http://www.w3.org/2000/svg">
<path d="M12.9922 5C8.59219 5 4.99219 8.6 4.99219 13C4.99219 17.4 8.59219 21 12.9922 21C17.3922 21 20.9922 17.4 20.9922 13C20.9922 8.6 17.3922 5 12.9922 5ZM16.4322 11.08L12.7522 15.88C12.5922 16.04 12.3522 16.2 12.1122 16.2C11.8722 16.2 11.6322 16.12 11.4722 15.88L9.55219 13.4C9.31219 13.08 9.31219 12.52 9.71219 12.28C10.1122 12.04 10.5922 12.04 10.8322 12.44L12.1122 14.12L15.1522 10.12C15.3922 9.8 15.9522 9.72 16.2722 9.96C16.6722 10.2 16.6722 10.68 16.4322 11.08Z" fill="#02BC7D"/>
</svg>
